HIERARCHY
ROOT Hips
{
	OFFSET	0.00	0.00	0.00
	CHANNELS 6 Xposition Yposition Zposition Zrotation Xrotation Yrotation
	JOINT LeftUpLeg
	{
		OFFSET	 0.126116	-0.014019	-0.065224
		CHANNELS 3 Zrotation Xrotation Yrotation
		JOINT LeftLeg
		{
			OFFSET	 0.000000	 0.000000	 0.569914
			CHANNELS 3 Zrotation Xrotation Yrotation
			JOINT LeftFoot
			{
				OFFSET	 0.000000	 0.000000	 0.544423
				CHANNELS 3 Zrotation Xrotation Yrotation
				JOINT LeftToeBase
				{
					OFFSET	 0.000000	 0.000000	 0.207117
					CHANNELS 3 Zrotation Xrotation Yrotation
					End Site
					{
						OFFSET	 0.000000	 0.000000	 0.207117
					}
				}
			}
		}
	}
	JOINT RightUpLeg
	{
		OFFSET	-0.124023	-0.008373	-0.065224
		CHANNELS 3 Zrotation Xrotation Yrotation
		JOINT RightLeg
		{
			OFFSET	 0.000000	 0.000000	 0.570047
			CHANNELS 3 Zrotation Xrotation Yrotation
			JOINT RightFoot
			{
				OFFSET	 0.000000	 0.000000	 0.544354
				CHANNELS 3 Zrotation Xrotation Yrotation
				JOINT RightToeBase
				{
					OFFSET	 0.000000	 0.000000	 0.207540
					CHANNELS 3 Zrotation Xrotation Yrotation
					End Site
					{
						OFFSET	 0.000000	 0.000000	 0.207540
					}
				}
			}
		}
	}
	JOINT Spine
	{
		OFFSET	 0.000184	-0.007763	 0.117403
		CHANNELS 3 Zrotation Xrotation Yrotation
		JOINT Spine1
		{
			OFFSET	 0.000000	 0.000000	 0.137269
			CHANNELS 3 Zrotation Xrotation Yrotation
			JOINT Spine2
			{
				OFFSET	 0.000000	 0.000000	 0.156879
				CHANNELS 3 Zrotation Xrotation Yrotation
				JOINT LeftShoulder
				{
					OFFSET	 0.080501	-0.002496	 0.160144
					CHANNELS 3 Zrotation Xrotation Yrotation
					JOINT LeftArm
					{
						OFFSET	 0.000000	 0.000000	 0.164363
						CHANNELS 3 Zrotation Xrotation Yrotation
						JOINT LeftForeArm
						{
							OFFSET	 0.000000	 0.000000	 0.364576
							CHANNELS 3 Zrotation Xrotation Yrotation
							JOINT LeftHand
							{
								OFFSET	 0.000000	 0.000000	 0.360812
								CHANNELS 3 Zrotation Xrotation Yrotation
								JOINT LeftHandIndex1
								{
									OFFSET	 0.000000	 0.000000	 0.086006
									CHANNELS 3 Zrotation Xrotation Yrotation
									JOINT LeftHandIndex2
									{
										OFFSET	 0.000000	 0.000000	 0.047236
										CHANNELS 3 Zrotation Xrotation Yrotation
										JOINT LeftHandIndex3
										{
											OFFSET	-0.004284	-0.000551	 0.038166
											CHANNELS 3 Zrotation Xrotation Yrotation
											End Site
											{
												OFFSET	-0.004284	-0.000551	 0.038166
											}
										}
									}
								}
							}
						}
					}
				}
				JOINT Neck
				{
					OFFSET	 0.000000	 0.000000	 0.176489
					CHANNELS 3 Zrotation Xrotation Yrotation
					JOINT Head
					{
						OFFSET	 0.000000	-0.001747	 0.077940
						CHANNELS 3 Zrotation Xrotation Yrotation
						End Site
						{
							OFFSET	 0.000000	-0.001747	 0.077940
						}
					}
				}
				JOINT RightShoulder
				{
					OFFSET	-0.080363	 0.000306	 0.159706
					CHANNELS 3 Zrotation Xrotation Yrotation
					JOINT RightArm
					{
						OFFSET	 0.000000	 0.000000	 0.164196
						CHANNELS 3 Zrotation Xrotation Yrotation
						JOINT RightForeArm
						{
							OFFSET	 0.000000	 0.000000	 0.365611
							CHANNELS 3 Zrotation Xrotation Yrotation
							JOINT RightHand
							{
								OFFSET	 0.000000	 0.000000	 0.360648
								CHANNELS 3 Zrotation Xrotation Yrotation
								JOINT RightHandIndex1
								{
									OFFSET	 0.000000	 0.000000	 0.069977
									CHANNELS 3 Zrotation Xrotation Yrotation
									JOINT RightHandIndex2
									{
										OFFSET	 0.000000	 0.000000	 0.052305
										CHANNELS 3 Zrotation Xrotation Yrotation
										JOINT RightHandIndex3
										{
											OFFSET	 0.009002	-0.000782	 0.042196
											CHANNELS 3 Zrotation Xrotation Yrotation
											End Site
											{
												OFFSET	 0.009002	-0.000782	 0.042196
											}
										}
									}
								}
							}
						}
					}
				}
			}
		}
	}
}
MOTION
Frames:    13
Frame Time: 0.03333334
 0.000157	 0.019685	 1.271775	-0.001954	 0.004781	 0.127319	 0.194572	-1.661527	 177.596800	 1.476426	-11.700520	-0.682644	-7.417068	 70.848000	 1.342291	-2.385833	 28.452760	 0.000004	-0.326541	-1.831775	-177.812400	-1.464662	-11.559270	 0.661780	 7.144003	 70.629710	-1.216521	 2.384658	 28.388730	 0.000004	-5.536146	 2.720510	 0.244612	-1.583812	 3.655921	-0.590031	 4.799259	-4.571602	 1.033923	-91.776130	 78.527450	 180.000000	 44.678350	 35.681880	-64.032390	-9.849738	 0.214732	-1.321566	-32.788920	-20.539750	-5.272996	-2.635965	 4.993658	 6.788941	-5.165319	 0.784187	 3.516649	-5.225038	 0.466231	 0.424329	-0.000002	-3.783157	-0.089647	 4.667991	 4.839119	-0.197366	 89.782030	 78.203870	-180.000000	-63.668140	 41.800900	 56.616430	 9.450255	 4.602269	 10.573230	 33.857450	-21.043870	 10.191470	 6.112037	 4.509576	-0.364401	 4.968462	 1.518543	-9.347576	 5.168945	 0.703820	 2.021906
 0.000162	 0.019641	 1.272552	-0.001953	 0.004778	 0.127322	 0.368323	-1.670368	 177.584500	 1.476426	-11.700630	-0.682651	-7.404662	 70.718570	 1.333059	-2.385833	 28.452760	 0.000004	-0.500362	-1.839859	-177.800800	-1.464665	-11.559270	 0.661780	 7.130824	 70.500780	-1.206252	 2.384658	 28.388730	 0.000004	-8.095446	 2.720507	 0.244611	-1.583812	 3.655930	-0.590018	 4.799251	-4.571597	 1.033919	-91.776170	 78.527470	 180.000000	 44.627640	 35.642820	-63.940520	-11.655400	 0.314908	-2.269605	-35.145770	-24.331240	-6.351250	-2.635965	 4.993658	 6.788941	-5.165319	 0.784187	 3.516649	-5.225038	 0.466231	 0.424329	-0.000002	-3.783157	-0.089647	 4.667991	 4.839121	-0.197366	 89.782030	 78.203890	-180.000000	-63.205980	 41.605550	 57.476040	 10.939400	 5.044650	 11.576800	 36.534870	-24.739420	 11.384270	 6.112037	 4.509576	-0.364401	 4.968462	 1.518543	-9.347576	 5.168945	 0.703820	 2.021906
 0.000167	 0.019595	 1.273397	-0.001955	 0.004781	 0.127324	 0.555634	-1.679896	 177.571300	 1.476424	-11.700670	-0.682653	-7.391268	 70.579060	 1.323123	-2.385833	 28.452760	 0.000004	-0.687752	-1.848608	-177.788300	-1.464667	-11.559250	 0.661780	 7.116647	 70.361790	-1.195261	 2.384658	 28.388730	 0.000004	-10.685890	 2.720504	 0.244609	-1.583809	 3.655924	-0.590073	 4.799267	-4.571598	 1.033942	-91.776030	 78.527430	 179.999900	 44.565730	 35.594620	-63.827210	-13.492960	 0.479476	-3.231758	-37.675780	-27.961580	-7.762279	-2.635965	 4.993658	 6.788941	-5.165319	 0.784187	 3.516649	-5.225038	 0.466231	 0.424329	-0.000002	-3.783157	-0.089647	 4.667993	 4.839118	-0.197366	 89.782070	 78.203890	-180.000000	-62.595610	 41.285750	 58.480180	 12.428070	 5.702805	 12.870770	 39.350220	-28.319010	 12.894380	 6.112037	 4.509576	-0.364401	 4.968462	 1.518543	-9.347576	 5.168945	 0.703820	 2.021906
 0.000173	 0.019551	 1.274230	-0.001954	 0.004781	 0.127319	 0.741677	-1.689379	 177.558200	 1.476423	-11.700680	-0.682653	-7.377956	 70.440480	 1.313292	-2.385833	 28.452760	 0.000004	-0.873869	-1.857346	-177.776000	-1.464663	-11.559250	 0.661780	 7.102567	 70.223840	-1.184389	 2.384658	 28.388730	 0.000004	-13.126600	 2.720511	 0.244612	-1.583811	 3.655925	-0.590040	 4.799267	-4.571599	 1.033926	-91.776080	 78.527420	 179.999900	 44.496910	 35.541810	-63.702340	-15.240210	 0.693359	-4.138942	-40.204060	-31.098470	-9.376269	-2.635965	 4.993658	 6.788941	-5.165319	 0.784187	 3.516649	-5.225038	 0.466231	 0.424329	-0.000002	-3.783157	-0.089647	 4.667993	 4.839118	-0.197366	 89.782040	 78.203900	-180.000000	-61.788350	 40.724700	 59.113750	 13.602270	 6.913896	 15.040560	 42.232170	-31.540480	 14.574870	 6.112037	 4.509576	-0.364401	 4.968462	 1.518543	-9.347576	 5.168945	 0.703820	 2.021906
 0.000177	 0.019511	 1.275030	-0.001954	 0.004781	 0.127319	 0.923752	-1.698690	 177.545300	 1.476422	-11.700650	-0.682652	-7.364912	 70.304920	 1.303697	-2.385833	 28.452760	 0.000004	-1.056023	-1.865939	-177.763900	-1.464662	-11.559260	 0.661780	 7.088802	 70.088850	-1.173811	 2.384658	 28.388730	 0.000004	-15.397680	 2.720513	 0.244612	-1.583808	 3.655922	-0.590075	 4.799255	-4.571592	 1.033950	-91.776120	 78.527450	 179.999900	 44.424100	 35.482890	-63.567940	-16.885850	 0.947633	-4.987834	-42.676640	-33.686330	-11.099160	-2.635965	 4.993658	 6.788941	-5.165319	 0.784187	 3.516649	-5.225038	 0.466231	 0.424329	-0.000002	-3.783157	-0.089647	 4.668018	 4.839134	-0.197367	 89.782010	 78.203900	-179.999900	-60.723750	 40.072010	 59.358610	 14.526430	 8.654920	 17.916030	 45.018680	-34.221840	 16.373480	 6.112037	 4.509576	-0.364401	 4.968462	 1.518543	-9.347576	 5.168945	 0.703820	 2.021906
 0.000182	 0.019474	 1.275864	-0.001955	 0.004781	 0.127324	 1.110921	-1.708329	 177.532200	 1.476425	-11.700670	-0.682652	-7.351514	 70.165620	 1.293886	-2.385833	 28.452760	 0.000004	-1.243248	-1.874805	-177.751600	-1.464663	-11.559250	 0.661779	 7.074700	 69.950160	-1.163000	 2.384658	 28.388730	 0.000004	-17.611770	 2.720502	 0.244610	-1.583810	 3.655931	-0.590067	 4.799270	-4.571599	 1.033937	-91.776050	 78.527470	 179.999900	 44.342530	 35.412230	-63.415170	-18.515160	 1.248825	-5.819386	-45.172680	-35.821010	-12.936090	-2.635965	 4.993658	 6.788941	-5.165319	 0.784187	 3.516649	-5.225038	 0.466231	 0.424329	-0.000002	-3.783157	-0.089647	 4.667991	 4.839119	-0.197366	 89.782050	 78.203850	-180.000000	-59.602060	 39.398110	 60.563200	 15.384860	 9.964396	 19.884080	 47.813420	-36.498870	 18.285360	 6.112037	 4.509576	-0.364401	 4.968462	 1.518543	-9.347576	 5.168945	 0.703820	 2.021906
 0.000186	 0.019439	 1.276697	-0.001956	 0.004783	 0.127321	 1.297875	-1.718055	 177.519100	 1.476422	-11.700800	-0.682660	-7.338140	 70.026550	 1.284150	-2.385833	 28.452760	 0.000004	-1.430273	-1.883754	-177.739200	-1.464663	-11.559360	 0.661785	 7.060632	 69.811680	-1.152283	 2.384658	 28.388730	 0.000004	-19.698170	 2.720509	 0.244610	-1.583809	 3.655916	-0.590061	 4.799268	-4.571595	 1.033936	-91.776120	 78.527430	 179.999900	 44.251450	 35.337780	-63.246680	-20.081600	 1.585421	-6.609508	-47.556600	-37.404130	-14.740890	-2.635965	 4.993658	 6.788941	-5.165319	 0.784187	 3.516649	-5.225038	 0.466231	 0.424329	-0.000002	-3.783157	-0.089647	 4.667993	 4.839118	-0.197366	 89.782090	 78.203890	 180.000000	-58.495910	 38.746290	 62.719050	 16.327680	 10.675800	 20.735800	 50.455290	-38.247080	 20.161100	 6.112037	 4.509576	-0.364401	 4.968462	 1.518543	-9.347576	 5.168945	 0.703820	 2.021906
 0.000190	 0.019405	 1.277497	-0.001954	 0.004781	 0.127319	 1.481599	-1.727522	 177.506200	 1.476424	-11.700680	-0.682653	-7.324968	 69.889820	 1.274569	-2.385833	 28.452760	 0.000004	-1.614079	-1.892542	-177.727100	-1.464658	-11.559360	 0.661785	 7.046791	 69.675580	-1.141772	 2.384658	 28.388730	 0.000004	-21.622320	 2.720511	 0.244613	-1.583809	 3.655915	-0.590057	 4.799259	-4.571592	 1.033937	-91.776170	 78.527450	 180.000000	 44.155430	 35.261790	-63.069460	-21.563030	 1.947203	-7.347672	-49.722680	-38.422020	-16.385440	-2.635965	 4.993658	 6.788941	-5.165319	 0.784187	 3.516649	-5.225038	 0.466231	 0.424329	-0.000002	-3.783157	-0.089647	 4.667991	 4.839121	-0.197366	 89.782010	 78.203890	-179.999900	-57.439190	 38.089190	 65.407620	 17.231930	 10.912670	 20.831410	 52.709650	-39.491890	 21.815890	 6.112037	 4.509576	-0.364401	 4.968462	 1.518543	-9.347576	 5.168945	 0.703820	 2.021906
 0.000194	 0.019370	 1.278261	-0.001956	 0.004783	 0.127317	 1.665367	-1.737161	 177.493400	 1.476420	-11.700790	-0.682660	-7.311807	 69.753170	 1.265069	-2.385833	 28.452760	 0.000004	-1.797915	-1.901441	-177.715000	-1.464657	-11.559520	 0.661795	 7.033007	 69.539570	-1.131368	 2.384658	 28.388730	 0.000004	-23.416160	 2.720509	 0.244615	-1.583810	 3.655914	-0.590022	 4.799265	-4.571592	 1.033920	-91.776200	 78.527450	-180.000000	 44.058050	 35.179980	-62.885450	-22.985890	 2.335903	-8.049100	-51.646190	-38.916380	-17.808850	-2.635965	 4.993658	 6.788941	-5.165319	 0.784187	 3.516649	-5.225038	 0.466231	 0.424329	-0.000002	-3.783157	-0.089647	 4.667991	 4.839119	-0.197366	 89.782060	 78.203900	-180.000000	-56.353900	 37.372130	 68.101010	 17.990290	 11.064570	 20.836410	 54.541620	-40.291070	 23.181250	 6.112037	 4.509576	-0.364401	 4.968462	 1.518543	-9.347576	 5.168945	 0.703820	 2.021906
 0.000198	 0.019331	 1.278979	-0.001953	 0.004778	 0.127322	 1.849301	-1.746780	 177.480600	 1.476425	-11.700790	-0.682660	-7.298625	 69.616400	 1.255575	-2.385833	 28.452760	 0.000004	-1.981923	-1.910236	-177.703000	-1.464664	-11.559370	 0.661785	 7.019135	 69.403310	-1.120892	 2.384658	 28.388730	 0.000004	-25.075780	 2.720505	 0.244611	-1.583809	 3.655940	-0.590017	 4.799247	-4.571604	 1.033917	-91.776080	 78.527470	 179.999900	 43.957790	 35.100040	-62.699570	-24.350220	 2.742332	-8.707599	-53.273810	-38.907090	-18.934890	-2.635965	 4.993658	 6.788941	-5.165319	 0.784187	 3.516649	-5.225038	 0.466231	 0.424329	-0.000002	-3.783157	-0.089647	 4.668018	 4.839136	-0.197367	 89.782090	 78.203850	 180.000000	-55.123190	 36.593490	 70.271970	 18.566430	 11.596140	 21.403630	 56.013730	-40.627470	 24.221800	 6.112037	 4.509576	-0.364401	 4.968462	 1.518543	-9.347576	 5.168945	 0.703820	 2.021906
 0.000203	 0.019295	 1.279643	-0.001954	 0.004781	 0.127319	 2.028635	-1.756142	 177.468100	 1.476425	-11.700650	-0.682652	-7.285713	 69.483020	 1.246304	-2.385833	 28.452760	 0.000004	-2.161325	-1.918903	-177.691300	-1.464666	-11.559300	 0.661782	 7.005644	 69.270550	-1.110767	 2.384658	 28.388730	 0.000004	-26.558030	 2.720511	 0.244613	-1.583812	 3.655921	-0.590022	 4.799266	-4.571600	 1.033920	-91.776120	 78.527420	 179.999900	 43.857630	 35.010820	-62.505840	-25.706390	 3.156977	-9.315579	-54.444560	-38.434890	-19.672290	-2.635965	 4.993658	 6.788941	-5.165319	 0.784187	 3.516649	-5.225038	 0.466231	 0.424329	-0.000002	-3.783157	-0.089647	 4.667991	 4.839120	-0.197366	 89.782010	 78.203890	-180.000000	-53.832300	 35.742950	 72.669530	 18.824390	 11.838420	 21.667740	 56.701460	-40.689320	 24.682840	 6.112037	 4.509576	-0.364401	 4.968462	 1.518543	-9.347576	 5.168945	 0.703820	 2.021906
 0.000207	 0.019257	 1.280295	-0.001955	 0.004781	 0.127324	 2.213489	-1.766031	 177.455300	 1.476421	-11.700910	-0.682667	-7.272493	 69.345760	 1.236883	-2.385833	 28.452760	 0.000004	-2.346233	-1.927988	-177.679200	-1.464661	-11.559490	 0.661794	 6.991838	 69.133830	-1.100459	 2.384658	 28.388730	 0.000004	-27.941020	 2.720505	 0.244610	-1.583809	 3.655934	-0.590074	 4.799256	-4.571600	 1.033947	-91.776090	 78.527430	 179.999900	 43.747590	 34.917970	-62.297520	-26.970230	 3.592174	-9.899158	-55.394090	-37.509570	-20.074740	-2.635965	 4.993658	 6.788941	-5.165319	 0.784187	 3.516649	-5.225038	 0.466231	 0.424329	-0.000002	-3.783157	-0.089647	 4.667991	 4.839121	-0.197366	 89.782030	 78.203870	-180.000000	-52.500810	 34.851490	 75.686420	 19.190070	 11.561370	 21.142800	 57.031210	-40.351590	 24.759890	 6.112037	 4.509576	-0.364401	 4.968462	 1.518543	-9.347576	 5.168945	 0.703820	 2.021906
 0.000212	 0.019216	 1.280935	-0.001954	 0.004781	 0.127315	 2.402327	-1.775862	 177.442300	 1.476425	-11.700550	-0.682645	-7.258831	 69.205270	 1.227138	-2.385833	 28.452760	 0.000004	-2.535130	-1.937099	-177.666900	-1.464664	-11.559250	 0.661779	 6.977623	 68.994000	-1.089860	 2.384658	 28.388730	 0.000004	-29.197410	 2.720510	 0.244617	-1.583808	 3.655918	-0.590046	 4.799257	-4.571590	 1.033926	-91.776090	 78.527430	 179.999900	 43.632550	 34.819090	-62.076390	-28.196310	 4.045905	-10.457460	-56.017760	-36.137130	-20.091690	-2.635965	 4.993658	 6.788941	-5.165319	 0.784187	 3.516649	-5.225038	 0.466231	 0.424329	-0.000002	-3.783157	-0.089647	 4.668017	 4.839136	-0.197367	 89.782050	 78.203870	-180.000000	-51.261910	 33.956670	 79.453840	 19.615850	 10.486600	 19.494630	 56.877220	-39.590120	 24.358390	 6.112037	 4.509576	-0.364401	 4.968462	 1.518543	-9.347576	 5.168945	 0.703820	 2.021906
